<svg xmlns="http://www.w3.org/2000/svg" viewBox="0 0 147 80"><defs><style>.cls-1{fill:#fff;}</style></defs><title>Resurs 1</title><g id="Lager_2" data-name="Lager 2"><g id="Lager_1-2" data-name="Lager 1"><path class="cls-1" d="M1,81V1H148V81ZM47.61,25.14c1.09,1.55,1.91,2.17,1.91,2.79,0,7.56,4.63,12.48,9.43,17.5,2,2.09,2.9,5.19,4.55,7.67.93,1.41,2.3,3.37,3.58,3.46s3-1.64,4-3c3-4.21,4.87-4.47,9.53-1.77a27.46,27.46,0,0,0,9,3.59c3.22.52,4.08,1.62,4.11,4.79a15.88,15.88,0,0,0,2.08,7.88c4.48,7.26,19.41,10.63,28.82,8.26C133.8,74,138.9,67.9,143.19,60.48c5.11-8.83-.85-23.86-10.8-25.35-7.76-1.17-15.86-.25-23.79.11a7.73,7.73,0,0,0-5.23,2.59C99.46,43,95,42,90.09,39.88c-5.22-2.21-6.56-5.87-3.57-10.74,1.62-2.64,3.41-4.52,7.22-4.06,2.22.26,4.68-1.51,7-2.36-.69-1.59-1.41-3.17-2-4.78-.37-.92-.35-2.1-.95-2.79-.88-1-2.15-2.45-3.23-2.42A58.74,58.74,0,0,0,82.79,14a13.46,13.46,0,0,0-6.18,3.58c-2.72,2.76-4.23,6.92-9.54,5.13-3.68-1.24-8.07-.95-11.27-2.83-3.41-2-5.92-5.65-8.59-8.78-3.34-3.91-6.67-1.95-9.78-.06-3.74,2.27-1.12,4.22.53,6.38a6.36,6.36,0,0,1,1,4.16c-.69,6.73-7.46,12.33-14,12.84-4.12.32-8.9,1-12.05,3.26-9,6.58-9.35,16.62-7.3,26.3,1.29,6.09,4.64,12.16,11.72,13.64a70.17,70.17,0,0,0,17.27,1.86c11.12-.49,17-5,19.26-14.24,2.9-11.61,1.08-20.13-7.83-25.61-1.21-.75-2.75-2.75-2.5-3.78C44.4,32.47,46,29.27,47.61,25.14Zm9.85-11.8c.73-1.65,2.34-4,1.88-4.5-1.65-1.94-3.83-4-6.17-4.6-1.44-.39-3.61,1.6-5.29,2.75a3,3,0,0,0,.67,2.42C51,10.71,53.65,11.7,57.46,13.34Zm47.71-.92,1.3,2.41c1.59-.93,3.2-1.83,4.69-2.89a14,14,0,0,0-1.1-2.21Z" transform="translate(-1 -1)"/><path d="M47.61,25.14c-1.63,4.13-3.22,7.33-4,10.72-.25,1,1.29,3,2.5,3.78,8.9,5.48,10.72,14,7.83,25.61C51.58,74.49,45.74,79,34.63,79.48a70.17,70.17,0,0,1-17.27-1.86C10.27,76.14,6.92,70.07,5.63,64c-2.06-9.68-1.71-19.72,7.3-26.3,3.16-2.31,7.93-2.94,12.05-3.26,6.55-.5,13.32-6.1,14-12.84a6.36,6.36,0,0,0-1-4.16c-1.65-2.16-4.27-4.11-.53-6.38,3.12-1.89,6.44-3.86,9.78.06,2.67,3.13,5.18,6.77,8.59,8.78,3.2,1.88,7.59,1.59,11.27,2.83,5.31,1.79,6.83-2.37,9.54-5.13A13.46,13.46,0,0,1,82.79,14a58.74,58.74,0,0,1,11.75-1.28c1.08,0,2.36,1.4,3.23,2.42.59.69.58,1.87.95,2.79.64,1.61,1.36,3.19,2,4.78-2.35.86-4.81,2.63-7,2.36-3.81-.45-5.61,1.43-7.22,4.06-3,4.87-1.65,8.53,3.57,10.74C95,42,99.46,43,103.37,37.82a7.73,7.73,0,0,1,5.23-2.59c7.93-.35,16-1.27,23.79-.11,10,1.5,15.91,16.52,10.8,25.35C138.9,67.9,133.8,74,124.64,76.34c-9.41,2.37-24.34-1-28.82-8.26a15.88,15.88,0,0,1-2.08-7.88c0-3.18-.89-4.27-4.11-4.79a27.46,27.46,0,0,1-9-3.59c-4.66-2.7-6.49-2.44-9.53,1.77-1,1.34-2.7,3.06-4,3s-2.65-2.05-3.58-3.46c-1.65-2.48-2.55-5.58-4.55-7.67-4.8-5-9.41-9.94-9.43-17.5C49.52,27.31,48.71,26.69,47.61,25.14Zm.67,33.61c-.14-2.38.31-4.37-.46-5.62-1.72-2.83-3.63-6.71-6.23-7.44-2-.57-5.27,2.88-7.81,4.77-.86.64-1,2.15-1.86,2.89A13.78,13.78,0,0,1,28.69,55c-.51-1.11-1.52-2.26-1.43-3.32a39.73,39.73,0,0,1,1.51-6.26c.74-2.88-.31-4.35-3.33-4.75-6.63-.89-11.56,2-12.84,8.85C9.88,64.12,15.43,72.37,29.82,73.91,40.3,75,49.26,70.2,48.29,58.75Zm72.55-19.22c-3.45.22-6.42-.1-9,.73a11.16,11.16,0,0,0-5.46,4.32c-.37.55,2.28,3,3.42,4.69s2.05,3.42,3.07,5.14c-2,.8-3.93,1.61-5.91,2.38-1.27.49-3.19.52-3.73,1.42-2.46,4.07.08,9.56,4.74,10.64a31.06,31.06,0,0,0,6.39,1c12.22.21,20.55-3.85,23.31-15,1.77-7.12-1.39-12.64-8.51-14.43A56.11,56.11,0,0,0,120.83,39.53Z" transform="translate(-1 -1)"/><path d="M57.46,13.34C53.65,11.7,51,10.71,48.54,9.41A3,3,0,0,1,47.88,7c1.68-1.15,3.85-3.14,5.29-2.75,2.35.64,4.52,2.65,6.17,4.6C59.8,9.37,58.19,11.69,57.46,13.34Z" transform="translate(-1 -1)"/><path d="M105.17,12.41l4.9-2.7a14,14,0,0,1,1.1,2.21c-1.49,1.07-3.11,2-4.69,2.89Z" transform="translate(-1 -1)"/><path class="cls-1" d="M48.29,58.75c1,11.45-8,16.29-18.47,15.16-14.39-1.54-19.95-9.8-17.22-24.38,1.28-6.81,6.2-9.75,12.84-8.85,3,.41,4.07,1.87,3.33,4.75a39.73,39.73,0,0,0-1.51,6.26c-.09,1.06.92,2.21,1.43,3.32a13.78,13.78,0,0,0,3.24-1.67c.82-.74,1-2.25,1.86-2.89,2.54-1.88,5.79-5.33,7.81-4.77,2.6.73,4.52,4.61,6.23,7.44C48.59,54.38,48.14,56.37,48.29,58.75Z" transform="translate(-1 -1)"/><path class="cls-1" d="M120.83,39.53a56.11,56.11,0,0,1,8.27.94c7.12,1.8,10.28,7.32,8.51,14.43-2.76,11.11-11.09,15.17-23.31,15a31.06,31.06,0,0,1-6.39-1c-4.65-1.08-7.2-6.58-4.74-10.64.54-.9,2.47-.93,3.73-1.42,2-.77,3.94-1.59,5.91-2.38-1-1.72-2-3.48-3.07-5.14s-3.78-4.13-3.42-4.69a11.16,11.16,0,0,1,5.46-4.32C114.41,39.43,117.39,39.74,120.83,39.53Z" transform="translate(-1 -1)"/></g></g></svg>